# xmcd CD database file
#
# Track frame offsets:
#	150
#	22159
#	48156
#	66707
#	82434
#	106449
#	127010
#	147066
#	164731
#	182101
#	206099
#	222482
#	240795
#	258678
#	275106
#	300151
#
# Disc length: 4279 seconds
#
# Revision: 0
# Processed by: cddbd v1.5.1PL0 Copyright (c) Steve Scherf et al.
# Submitted via: CDex 1.51
#
DISCID=0110b510
DTITLE=San Francisco Feetwarmers - Blues, Brahms and Bechet
DYEAR=1900
DGENRE=Jazz
TTITLE0=Brahms In Harlem
TTITLE1=Si Tu Vois Ma Mere
TTITLE2=Viper Mad
TTITLE3=Petite Fleur
TTITLE4=When You And I Were Young
TTITLE5=Deep Indigo Blues
TTITLE6=You're Driving Me Crazy
TTITLE7=Peerdido Street Blues
TTITLE8=Temptation
TTITLE9=Wolverine Blues
TTITLE10=Why
TTITLE11=My Monday Date
TTITLE12=Doc's Blues
TTITLE13=Promenade Aux Champs Elysees
TTITLE14=Savoy Blues
TTITLE15=Girl Of My Dreams
EXTD=
EXTT0=
EXTT1=
EXTT2=
EXTT3=
EXTT4=
EXTT5=
EXTT6=
EXTT7=
EXTT8=
EXTT9=
EXTT10=
EXTT11=
EXTT12=
EXTT13=
EXTT14=
EXTT15=
PLAYORDER=
